# xmcd
#
# Track frame offsets:
#	150
#	15622
#	31650
#	54835
#
# Disc length: 965 seconds
#
# Revision: 0
# Processed by: cddbd v1.4PL0 Copyright (c) Steve Scherf et al.
# Submitted via: dBpowerAMP V4.0
#
DISCID=1f03c304
DTITLE=Laura Fygi - The Best Of CD2
DYEAR=1900
DGENRE=Slow Jam
TTITLE0=I've Grown Accustomed To His Face
TTITLE1=Let's Get Away From Here
TTITLE2=Impossible
TTITLE3=Out Of Sight, Out Of Mind
EXTD=
EXTT0=
EXTT1=
EXTT2=
EXTT3=
PLAYORDER=
